# xmcd CD database file
#
# Track frame offsets:
#	150
#	19666
#	36636
#	47908
#	57195
#	64262
#	74450
#	89414
#	97413
#	106571
#	117577
#	126866
#	137194
#	143692
#	152458
#	162907
#	171485
#	183339
#	195171
#	207616
#	214913
#	228239
#	238756
#
# Disc length: 3294 seconds
#
# Revision: 0
# Processed by: cddbd v1.5.1PL2 Copyright (c) Steve Scherf et al.
# Submitted via: CDex 1.51
#
DISCID=5a0cdc17
DTITLE=Nara Leao - Nara '67
DYEAR=2006
DGENRE=Salsa
TTITLE0=Quem Te Viu Quem Te Ve
TTITLE1=Com Acucar Com Afeto
TTITLE2=Noites Dos Mascarados
TTITLE3=Vento De Maio
TTITLE4=Maria Joana
TTITLE5=A Praca
TTITLE6=O Circo
TTITLE7=Moreno Do Mar
TTITLE8=Fui Bem Feliz
TTITLE9=Rancho Das Namoradas
TTITLE10=Um Chorinho
TTITLE11=Passa Passa Giviao
TTITLE12=Tique Taque Do Meu Coracao
TTITLE13=Lanch Nova
TTITLE14=Por Exemplo Voce
TTITLE15=Corrida De Jangada
TTITLE16=De Onde Vens
TTITLE17=Se Voce Quiser Saber
TTITLE18=Camisa Amarela
TTITLE19=Cabra Macho
TTITLE20=No Cordao Da Saideira
TTITLE21=Inspiracao
TTITLE22=Soneto De Separacao
EXTD=YEAR: 2006
EXTT0=
EXTT1=
EXTT2=
EXTT3=
EXTT4=
EXTT5=
EXTT6=
EXTT7=
EXTT8=
EXTT9=
EXTT10=
EXTT11=
EXTT12=
EXTT13=
EXTT14=
EXTT15=
EXTT16=
EXTT17=
EXTT18=
EXTT19=
EXTT20=
EXTT21=
EXTT22=
PLAYORDER=
